<svg width="160" height="81" viewBox="0 0 160 81" fill="none" xmlns="http://www.w3.org/2000/svg">
<path d="M14.0385 50.322C12.7271 49.7147 11.6589 48.6828 11.0065 47.3933C10.3361 46.086 10.0006 44.4519 10 42.4912V40.6334H13.6627V42.4912C13.6627 44.2972 14.1141 45.6475 15.0168 46.542C15.9195 47.4365 17.2913 47.8838 19.132 47.8838C20.9204 47.8838 22.2578 47.4365 23.144 46.542C24.0303 45.6475 24.4732 44.2972 24.4726 42.4912V40.2726C24.4726 39.0682 24.2059 38.039 23.6725 37.1851C23.1435 36.3378 22.4452 35.6089 21.6215 35.0441C20.7869 34.4677 19.716 33.8526 18.4087 33.1986C18.3592 33.1829 18.3118 33.1613 18.2675 33.1342C18.2243 33.1086 18.1855 33.0875 18.1511 33.0698L17.7894 32.889C16.0839 32.0468 14.721 31.2823 13.7006 30.5954C12.6803 29.9085 11.8116 28.984 11.0947 27.8219C10.3802 26.661 10.0232 25.2201 10.0238 23.4994V21.6689C10.0238 19.7435 10.359 18.1353 11.0295 16.8444C11.6841 15.5702 12.7474 14.5526 14.0491 13.9545C15.3899 13.3188 17.0754 13.0006 19.1056 13C21.0663 13 22.7003 13.3235 24.0077 13.9704C25.2859 14.5875 26.3214 15.614 26.9496 16.8868C27.6036 18.1853 27.9303 19.8149 27.9297 21.7756V23.7358H24.2688V21.7721C24.2688 19.9843 23.8386 18.6425 22.9782 17.7469C22.1178 16.8512 20.8278 16.4042 19.1082 16.406C17.3022 16.406 15.9478 16.8315 15.045 17.6825C14.1423 18.5334 13.6906 19.8108 13.69 21.5145V23.3459C13.69 24.4985 13.9738 25.4792 14.5413 26.2878C15.1008 27.0888 15.8161 27.7686 16.6444 28.2868C17.4789 28.8126 18.6271 29.4277 20.0892 30.1323C20.2259 30.2011 20.36 30.2655 20.4888 30.3254C20.6176 30.3854 20.7534 30.4507 20.8884 30.5195C20.9572 30.5539 21.0216 30.5839 21.0825 30.6077C21.1407 30.6324 21.1968 30.6619 21.2501 30.6959C22.6615 31.4017 23.8527 32.1286 24.8237 32.8766C25.8221 33.6575 26.6367 34.6483 27.2099 35.7789C27.8292 36.9663 28.1388 38.4112 28.1388 40.1138V42.4877C28.1388 44.449 27.8077 46.0786 27.1455 47.3765C26.5009 48.6582 25.4477 49.6887 24.1523 50.3053C22.8197 50.9616 21.1463 51.2898 19.132 51.2898C17.0866 51.2898 15.3888 50.9672 14.0385 50.322Z" fill="white"/>
<path d="M48.1609 50.906H52.2894L43.6196 13.3873H39.1303L30.4614 50.906H34.589L36.4415 41.7978H46.3084L48.1609 50.906ZM37.1455 38.3371L41.3754 17.5404L45.6097 38.3371H37.1455Z" fill="white"/>
<path d="M72.8277 34.9312C72.5178 33.9679 72.0661 33.1851 71.4727 32.5829C70.889 31.9865 70.1377 31.5816 69.3185 31.422C70.0496 31.2209 70.7049 30.8081 71.2019 30.2355C71.7183 29.6509 72.1141 28.9026 72.3893 27.9904C72.6645 27.0783 72.8021 26.0291 72.8021 24.8429V19.8146C72.8021 18.4561 72.5225 17.2993 71.9632 16.3443C71.3969 15.3835 70.5509 14.6184 69.5382 14.1512C68.4796 13.6443 67.2022 13.3908 65.7061 13.3908H55.6434V50.906H66.4057C67.8671 50.906 69.1098 50.6482 70.1336 50.1324C71.1315 49.6412 71.9521 48.852 72.4819 47.8741C73.0247 46.8831 73.2961 45.6908 73.2961 44.297V38.286C73.2961 37.0128 73.14 35.8945 72.8277 34.9312ZM65.8358 16.8471C66.8503 16.8471 67.6457 17.1264 68.222 17.6851C68.7984 18.2438 69.0865 19.031 69.0865 20.0466V25.4392C69.0865 26.7466 68.7984 27.7613 68.222 28.4835C67.6457 29.2057 66.8329 29.5668 65.7837 29.5668H59.3582V16.8444L65.8358 16.8471ZM69.5761 44.2229C69.5761 45.2373 69.2665 46.0283 68.6472 46.5959C68.0279 47.1634 67.1593 47.4471 66.0413 47.4471H59.3582V33.0222H65.7829C66.4623 33.0146 67.1296 33.2027 67.7051 33.5638C68.3013 33.9476 68.7757 34.4936 69.0724 35.1376C69.4088 35.8257 69.5764 36.6428 69.5752 37.5891L69.5761 44.2229Z" fill="white"/>
<path d="M97.1583 50.906L91.6325 34.0896C91.6934 34.0613 91.7569 34.0358 91.8168 34.0058C93.1663 33.3598 94.2805 32.3089 95.0041 30.9994C95.7345 29.6838 96.1 28.1059 96.1006 26.2658V21.8753C96.1006 20.0869 95.7351 18.5519 95.0041 17.2705C94.2731 15.989 93.2121 15.0169 91.8213 14.3541C90.4286 13.6925 88.7526 13.3614 86.793 13.3608H77.8074V50.906H81.5222V35.0343H86.7859C87.2717 35.0343 87.7398 35.0132 88.1903 34.9708L92.8499 50.906H97.1583ZM81.5222 31.5772V16.8188H87.0444C88.1618 16.8188 89.1207 17.0379 89.9211 17.476C90.7144 17.9079 91.3542 18.5752 91.7525 19.3859C92.1741 20.2204 92.385 21.2222 92.385 22.3914V26.2622C92.385 27.3796 92.1741 28.3385 91.7525 29.1389C91.3479 29.9223 90.7072 30.5587 89.9211 30.9579C89.1207 31.3696 88.1618 31.5754 87.0444 31.5754L81.5222 31.5772Z" fill="white"/>
<path d="M105.936 50.906H102.22V13.3873H105.936V50.906Z" fill="white"/>
<path d="M115.413 50.322C114.102 49.7146 113.034 48.6828 112.382 47.3933C111.711 46.086 111.375 44.4519 111.375 42.4912V40.6334H115.039V42.4912C115.039 44.2972 115.49 45.6475 116.394 46.542C117.297 47.4365 118.669 47.8838 120.509 47.8838C122.298 47.8838 123.635 47.4365 124.521 46.542C125.407 45.6475 125.85 44.2972 125.85 42.4912V40.2726C125.85 39.0682 125.584 38.039 125.05 37.1851C124.521 36.3382 123.823 35.6094 122.999 35.0441C122.165 34.4677 121.094 33.8526 119.786 33.1986C119.737 33.1827 119.689 33.1611 119.644 33.1342C119.601 33.1086 119.563 33.0875 119.529 33.0698L119.167 32.889C117.462 32.0468 116.098 31.2823 115.077 30.5954C114.056 29.9085 113.188 28.984 112.472 27.8219C111.758 26.661 111.401 25.2201 111.401 23.4994V21.6689C111.401 19.7435 111.736 18.1353 112.407 16.8444C113.061 15.5701 114.124 14.5524 115.426 13.9545C116.768 13.3188 118.454 13.0006 120.483 13C122.445 13 124.079 13.3235 125.385 13.9704C126.664 14.5875 127.699 15.614 128.327 16.8868C128.981 18.1853 129.308 19.8149 129.307 21.7756V23.7358H125.643V21.7721C125.643 19.9843 125.213 18.6425 124.353 17.7469C123.493 16.8512 122.203 16.4042 120.483 16.406C118.677 16.406 117.322 16.8315 116.419 17.6825C115.516 18.5334 115.065 19.8108 115.065 21.5145V23.3459C115.065 24.4985 115.349 25.4792 115.916 26.2878C116.476 27.0889 117.192 27.7688 118.021 28.2868C118.855 28.8126 120.002 29.4277 121.462 30.1323C121.599 30.2011 121.733 30.2655 121.862 30.3254C121.991 30.3854 122.127 30.4507 122.262 30.5195C122.33 30.5539 122.395 30.5839 122.456 30.6077C122.514 30.6322 122.57 30.6617 122.622 30.6959C124.034 31.4017 125.225 32.1286 126.196 32.8766C127.195 33.6573 128.01 34.6482 128.583 35.7789C129.202 36.9663 129.512 38.4112 129.512 40.1138V42.4877C129.512 44.449 129.181 46.0786 128.519 47.3765C127.874 48.6582 126.821 49.6887 125.526 50.3053C124.193 50.9593 122.52 51.2862 120.507 51.2862C118.462 51.2886 116.764 50.9672 115.413 50.322Z" fill="white"/>
<path d="M150 16.8444V13.3873H133.9V50.9025H150V47.4454H137.615V34.0023H148.71V30.5451H137.615V16.8444H150Z" fill="white"/>
<path d="M85.072 67.2867C85.0217 67.3123 84.9679 67.3414 84.9105 67.3749C84.8532 67.4084 84.7941 67.4411 84.7341 67.479C84.4309 67.6333 84.1133 67.7574 83.7858 67.8495C83.3782 67.9618 82.9567 68.0158 82.534 68.0101C81.1308 68.0101 79.9928 67.5866 79.1201 66.7398C78.2473 65.8929 77.811 64.837 77.811 63.572C77.811 62.2823 78.2473 61.2169 79.1201 60.3759C79.9928 59.5349 81.1232 59.113 82.5111 59.11C82.9719 59.0997 83.4318 59.154 83.8775 59.2715C84.1864 59.3564 84.4852 59.4748 84.7685 59.6243C84.832 59.6623 84.8885 59.6976 84.9396 59.7293L85.072 59.8175V60.937C84.5285 60.5453 84.0639 60.2957 83.6782 60.188C83.3237 60.085 82.9569 60.0307 82.5878 60.0266C81.6712 60.0147 80.7825 60.3425 80.0931 60.9467C79.3786 61.5571 79.0213 62.4313 79.0213 63.5693C79.0213 64.6814 79.3659 65.5509 80.0552 66.1778C80.7096 66.7896 81.5746 67.1258 82.4705 67.1164C82.9813 67.1264 83.4877 67.0193 83.9507 66.8033C84.3514 66.6131 84.7271 66.3743 85.0693 66.0923L85.072 67.2867Z" fill="white"/>
<path d="M90.9523 68.0268C89.7991 68.028 88.6855 67.6061 87.8225 66.8412C86.9244 66.0632 86.4754 64.9725 86.4754 63.5693C86.4754 62.3302 86.8871 61.2775 87.7104 60.4112C88.5338 59.5449 89.6144 59.1112 90.9523 59.11C92.305 59.11 93.3891 59.5432 94.2048 60.4095C95.0205 61.2757 95.4284 62.3284 95.4284 63.5676C95.4284 64.8073 95.0205 65.8567 94.2048 66.716C93.3891 67.5752 92.305 68.0051 90.9523 68.0057V68.0268ZM93.3615 66.0067C93.9138 65.3125 94.2144 64.4516 94.2144 63.5645C94.2144 62.6774 93.9138 61.8165 93.3615 61.1222C92.7922 60.3895 91.9892 60.0228 90.9523 60.0222C89.9155 60.0216 89.1125 60.3883 88.5432 61.1222C87.9903 61.818 87.6893 62.6806 87.6893 63.5693C87.6893 64.458 87.9903 65.3206 88.5432 66.0164C89.1119 66.7498 89.9149 67.1165 90.9523 67.1165C91.9897 67.1165 92.7928 66.7465 93.3615 66.0067Z" fill="white"/>
<path d="M99.526 59.956C99.7391 59.7422 99.9818 59.5601 100.247 59.4153C100.469 59.303 100.707 59.2231 100.952 59.178C101.178 59.1353 101.407 59.1132 101.636 59.1118C102.305 59.1118 102.827 59.2882 103.2 59.6411C103.552 59.959 103.8 60.3756 103.912 60.8364C104.068 60.5376 104.265 60.2627 104.5 60.0204C104.692 59.8231 104.909 59.6509 105.145 59.5079C105.429 59.3425 105.74 59.2302 106.064 59.1762C106.306 59.1369 106.55 59.1148 106.795 59.11C106.963 59.1129 107.131 59.1256 107.298 59.148C107.532 59.1809 107.759 59.2511 107.971 59.3562C108.3 59.5079 108.607 59.8019 108.891 60.2383C109.175 60.6747 109.317 61.3481 109.318 62.2584V67.6837H108.18V62.2584C108.18 62.1323 108.174 61.9832 108.16 61.813C108.147 61.6377 108.122 61.4635 108.085 61.2916C108.006 60.9682 107.849 60.6687 107.629 60.4183C107.402 60.153 107.042 60.0204 106.549 60.0204C106.441 60.0212 106.333 60.0306 106.226 60.0487C106.116 60.0677 106.008 60.0972 105.904 60.1369C105.449 60.2886 105.031 60.6173 104.652 61.1231C104.273 61.6289 104.083 62.3496 104.082 63.2853V67.6863H102.936V62.3175C102.936 62.2161 102.936 62.1155 102.928 62.0141C102.919 61.9126 102.911 61.8121 102.898 61.7106C102.863 61.3007 102.733 60.9045 102.519 60.5532C102.304 60.2004 101.912 60.024 101.343 60.024C100.66 60.024 100.104 60.3086 99.6742 60.8779C99.2537 61.4256 98.9804 62.0719 98.8802 62.7551C98.867 62.8433 98.8573 62.9315 98.8511 63.0197C98.8449 63.108 98.8423 63.1962 98.8423 63.2844V67.6854H97.7043V59.4532H98.8423V60.8743C99.0254 60.5373 99.2556 60.2281 99.526 59.956Z" fill="white"/>
<path d="M113.183 59.4532V60.9132C113.454 60.4125 113.837 59.9812 114.302 59.6526C114.795 59.2909 115.447 59.11 116.257 59.11C117.559 59.11 118.593 59.5305 119.359 60.3715C120.124 61.2125 120.506 62.2779 120.505 63.5676C120.505 65.0213 120.078 66.1246 119.224 66.8774C118.425 67.6092 117.378 68.0121 116.294 68.0057C115.647 68.0057 115.113 67.8951 114.691 67.674C114.315 67.4878 113.972 67.241 113.677 66.9435C113.588 66.843 113.508 66.7477 113.439 66.6595C113.37 66.5713 113.31 66.4884 113.263 66.4125V71.6666H112.125V59.4532H113.183ZM118.522 66.0632C119.034 65.3616 119.291 64.5303 119.291 63.5693C119.291 63.4432 119.284 63.3161 119.272 63.19C119.26 63.0638 119.246 62.9368 119.234 62.8107C119.102 62.1037 118.789 61.4433 118.324 60.8946C117.843 60.3136 117.116 60.0228 116.142 60.0222C115.218 60.0222 114.494 60.3795 113.97 61.094C113.444 61.8109 113.168 62.6803 113.183 63.5693C113.183 64.6814 113.493 65.5509 114.112 66.1778C114.732 66.8048 115.459 67.1176 116.294 67.1164C117.269 67.1164 118.012 66.7654 118.522 66.0632Z" fill="white"/>
<path d="M129.572 59.4532H130.631V67.6854H129.572V66.2819C129.276 66.8437 128.814 67.3005 128.249 67.5902C127.718 67.864 127.129 68.0071 126.532 68.0074C125.434 68.0131 124.373 67.6111 123.554 66.8792C122.682 66.1264 122.246 65.0231 122.246 63.5693C122.246 62.3302 122.634 61.2775 123.412 60.4112C124.189 59.5449 125.237 59.1112 126.556 59.11C126.768 59.1108 126.981 59.1267 127.191 59.1577C127.427 59.1918 127.66 59.251 127.884 59.3341C128.21 59.4748 128.513 59.6633 128.784 59.8934C129.11 60.1769 129.378 60.5216 129.572 60.9079V59.4532ZM128.69 66.1778C129.278 65.5515 129.572 64.682 129.572 63.5693C129.588 62.6792 129.309 61.8089 128.778 61.094C128.249 60.3795 127.515 60.0222 126.578 60.0222C125.641 60.0222 124.888 60.3668 124.321 61.0561C123.752 61.7453 123.467 62.5831 123.467 63.5693C123.455 64.4608 123.743 65.3305 124.283 66.0393C124.827 66.7598 125.579 67.1203 126.54 67.1209C126.945 67.1257 127.346 67.0441 127.717 66.8815C128.088 66.7189 128.419 66.479 128.69 66.1778Z" fill="white"/>
<path d="M133.441 59.4532H134.579V60.8188C134.629 60.7306 134.693 60.6229 134.769 60.4959C134.857 60.3539 134.959 60.2206 135.072 60.0981C135.327 59.8269 135.625 59.5995 135.954 59.425C136.328 59.2162 136.793 59.1118 137.349 59.1118C138.259 59.1118 138.965 59.3962 139.466 59.9649C139.967 60.5335 140.217 61.3492 140.216 62.4119V67.6854H139.077V62.5637C139.077 62.4499 139.077 62.3334 139.067 62.2108C139.058 62.0882 139.052 61.9744 139.039 61.8579C138.991 61.4099 138.842 60.9786 138.603 60.5965C138.362 60.2113 137.901 60.0184 137.218 60.0178C136.422 60.0178 135.805 60.3212 135.366 60.9282C134.936 61.5182 134.671 62.2121 134.598 62.9386C134.598 63.0145 134.598 63.0903 134.588 63.1662C134.578 63.242 134.578 63.3179 134.578 63.3938V67.681H133.44L133.441 59.4532Z" fill="white"/>
<path d="M143.115 59.4532L146.202 66.4142L148.839 59.4532H149.996L145.145 71.6683H143.91L145.617 67.6104L141.824 59.4541L143.115 59.4532Z" fill="white"/>
</svg>
